<svg width="384" height="120" viewBox="0 0 384 120" fill="none" xmlns="http://www.w3.org/2000/svg">
<path d="M45 60C59.5078 60 71.25 48.2578 71.25 33.75C71.25 19.2422 59.5078 7.5 45 7.5C30.4922 7.5 18.75 19.2422 18.75 33.75C18.75 48.2578 30.4922 60 45 60ZM63 67.5H61.0547C56.1797 69.8438 50.7656 71.25 45 71.25C39.2344 71.25 33.8438 69.8438 28.9453 67.5H27C12.0938 67.5 0 79.5938 0 94.5V101.25C0 107.461 5.03906 112.5 11.25 112.5H78.75C84.9609 112.5 90 107.461 90 101.25V94.5C90 79.5938 77.9062 67.5 63 67.5ZM112.5 60C124.922 60 135 49.9219 135 37.5C135 25.0781 124.922 15 112.5 15C100.078 15 90 25.0781 90 37.5C90 49.9219 100.078 60 112.5 60ZM123.75 67.5H122.859C119.602 68.625 116.156 69.375 112.5 69.375C108.844 69.375 105.398 68.625 102.141 67.5H101.25C96.4688 67.5 92.0625 68.8828 88.1953 71.1094C93.9141 77.2734 97.5 85.4531 97.5 94.5V103.5C97.5 104.016 97.3828 104.508 97.3594 105H138.75C144.961 105 150 99.9609 150 93.75C150 79.2422 138.258 67.5 123.75 67.5Z" fill="#131316" fill-opacity="0.05"/>
<path d="M107.506 59.8182C107.506 47.7976 99.907 41.1392 90.1414 41.1392C80.3403 41.1392 72.7941 47.7976 72.7941 59.8182C72.7941 71.7855 80.3403 78.4972 90.1414 78.4972C99.907 78.4972 107.506 71.8388 107.506 59.8182ZM98.5221 59.8182C98.5221 66.9382 95.3971 70.7912 90.1414 70.7912C84.9035 70.7912 81.7607 66.9382 81.7607 59.8182C81.7607 52.6982 84.9035 48.8452 90.1414 48.8452C95.3971 48.8452 98.5221 52.6982 98.5221 59.8182ZM130.234 66.228C130.234 69.4062 128.21 71.1818 125.635 71.1818C122.972 71.1818 121.338 69.3707 121.32 66.4055V50.7273H112.638V68.1101C112.656 74.2713 116.402 78.3551 122.013 78.3551C126.097 78.3551 129.133 76.2599 130.34 72.9219H130.624V78H138.899V50.7273H130.234V66.228ZM144.425 78H153.108V63.1918C153.108 59.9425 155.416 57.7585 158.523 57.7585C159.553 57.7585 161.098 57.9361 161.932 58.2202V50.674C161.204 50.4787 160.299 50.3544 159.5 50.3544C156.517 50.3544 154.137 52.0945 153.143 55.6989H152.859V50.7273H144.425V78ZM176.212 78H184.895V61.8601C184.895 59.1612 186.475 57.4389 188.748 57.4389C191.003 57.4389 192.494 59.0192 192.494 61.5405V78H200.839V61.718C200.839 59.108 202.277 57.4389 204.674 57.4389C206.876 57.4389 208.439 58.9126 208.439 61.6293V78H217.121V59.6406C217.121 53.87 213.57 50.3722 208.421 50.3722C204.39 50.3722 201.212 52.4851 200.2 55.7344H199.916C199.188 52.4673 196.258 50.3722 192.476 50.3722C188.748 50.3722 185.907 52.4141 184.77 55.7344H184.468V50.7273H176.212V78ZM222.501 78H231.184V50.7273H222.501V78ZM226.851 47.549C229.319 47.549 231.308 45.6847 231.308 43.3942C231.308 41.1037 229.319 39.2571 226.851 39.2571C224.401 39.2571 222.395 41.1037 222.395 43.3942C222.395 45.6847 224.401 47.549 226.851 47.549ZM260.521 59.0547C260.059 53.657 255.638 50.3722 248.251 50.3722C240.865 50.3722 236.16 53.5859 236.195 59.0547C236.16 63.245 238.841 65.9439 244.292 66.956L249.05 67.8615C251.305 68.3054 252.335 69.0156 252.371 70.223C252.335 71.5902 250.808 72.4957 248.589 72.4957C246.121 72.4957 244.452 71.4304 244.079 69.4418L235.503 69.6548C236.124 75.0526 240.758 78.5149 248.553 78.5149C255.851 78.5149 261.16 74.875 261.195 69.2642C261.16 65.2869 258.532 62.9254 253.099 61.8778L247.843 60.8835C245.535 60.4219 244.789 59.6051 244.807 58.5575C244.789 57.1726 246.405 56.3203 248.411 56.3203C250.702 56.3203 252.3 57.5455 252.548 59.2678L260.521 59.0547ZM289.28 59.0547C288.819 53.657 284.397 50.3722 277.011 50.3722C269.625 50.3722 264.919 53.5859 264.955 59.0547C264.919 63.245 267.601 65.9439 273.052 66.956L277.81 67.8615C280.065 68.3054 281.095 69.0156 281.13 70.223C281.095 71.5902 279.568 72.4957 277.348 72.4957C274.88 72.4957 273.211 71.4304 272.839 69.4418L264.263 69.6548C264.884 75.0526 269.518 78.5149 277.313 78.5149C284.611 78.5149 289.919 74.875 289.955 69.2642C289.919 65.2869 287.292 62.9254 281.858 61.8778L276.603 60.8835C274.294 60.4219 273.549 59.6051 273.566 58.5575C273.549 57.1726 275.165 56.3203 277.171 56.3203C279.461 56.3203 281.059 57.5455 281.308 59.2678L289.28 59.0547ZM294.23 78H302.912V50.7273H294.23V78ZM298.58 47.549C301.048 47.549 303.036 45.6847 303.036 43.3942C303.036 41.1037 301.048 39.2571 298.58 39.2571C296.13 39.2571 294.123 41.1037 294.123 43.3942C294.123 45.6847 296.13 47.549 298.58 47.549ZM321.169 78.5149C329.745 78.5149 334.948 72.8509 334.948 64.4524C334.948 56.0362 329.745 50.3722 321.169 50.3722C312.593 50.3722 307.391 56.0362 307.391 64.4524C307.391 72.8509 312.593 78.5149 321.169 78.5149ZM321.223 71.9631C318.009 71.9631 316.233 68.9091 316.233 64.3991C316.233 59.8714 318.009 56.7997 321.223 56.7997C324.33 56.7997 326.106 59.8714 326.106 64.3991C326.106 68.9091 324.33 71.9631 321.223 71.9631ZM348.078 62.446C348.096 59.3388 349.907 57.4922 352.659 57.4922C355.411 57.4922 357.045 59.3033 357.027 62.3217V78H365.71V60.6172C365.727 54.4737 361.981 50.3722 356.246 50.3722C352.215 50.3722 349.161 52.4141 347.954 55.7344H347.652V50.7273H339.396V78H348.078V62.446Z" fill="#131316"/>
<path d="M375.968 78.5149C378.4 78.5149 380.549 76.4553 380.584 73.8984C380.549 71.3771 378.4 69.3352 375.968 69.3352C373.411 69.3352 371.316 71.3771 371.351 73.8984C371.316 76.4553 373.411 78.5149 375.968 78.5149Z" fill="#4AE290"/>
</svg>
