<svg width="379" height="120" viewBox="0 0 379 120" fill="none" xmlns="http://www.w3.org/2000/svg">
<path d="M3.70997 2.43002C4.06174 1.56309 4.73774 0.863736 5.59732 0.477449C6.45691 0.0911617 7.4339 0.0476823 8.32506 0.356056C9.21621 0.664429 9.95292 1.30091 10.3819 2.13309C10.8109 2.96528 10.8992 3.92909 10.6283 4.82402C4.99541 20.844 16.1763 32.808 24.7014 39.216L28.1454 34.332C29.3035 32.694 31.8926 31.332 33.9057 31.308L53.2357 31.392C55.5971 31.4626 57.8953 32.1633 59.8873 33.42L116.847 72.942C118.172 73.8646 119.073 75.2691 119.354 76.8479C119.635 78.4268 119.272 80.0514 118.344 81.366L92.4598 118.014C90.5195 120.744 87.4211 120.414 84.6562 118.506L27.6967 78.978C26.0596 77.832 24.1678 75.36 23.5009 73.47L17.4496 54.6C16.7826 52.716 17.1889 49.842 18.347 48.204L20.4449 45.228C8.99725 36.546 -2.88699 21.204 3.70997 2.43002ZM30.2131 58.578C31.2624 59.3049 32.4462 59.82 33.6968 60.0939C34.9473 60.3679 36.2402 60.3954 37.5015 60.1747C38.7629 59.9541 39.9679 59.4896 41.0477 58.808C42.1276 58.1263 43.0611 57.2408 43.795 56.202C45.281 54.1 45.8634 51.5003 45.4144 48.9738C44.9653 46.4473 43.5216 44.2003 41.4 42.726C39.7368 41.5729 37.751 40.9629 35.7203 40.9812C33.6896 40.9994 31.7153 41.6451 30.0736 42.828C31.7228 43.812 32.8567 44.388 33.0689 44.478C33.8205 44.8326 34.4281 45.4294 34.7922 46.1705C35.1562 46.9115 35.2551 47.753 35.0726 48.5569C34.8901 49.3609 34.437 50.0797 33.7877 50.5955C33.1383 51.1113 32.3312 51.3935 31.4985 51.396C30.977 51.396 30.4435 51.276 29.9402 51.042C28.7639 50.49 27.5027 49.836 26.187 49.062C25.8843 50.8624 26.1016 52.7107 26.8139 54.3943C27.5262 56.0778 28.7044 57.528 30.2131 58.578Z" fill="#131316" fill-opacity="0.05"/>
<path d="M72.8337 78V41.6364H87.855C90.5776 41.6364 92.9272 42.169 94.904 43.2344C96.8927 44.2879 98.4256 45.7616 99.5028 47.6555C100.58 49.5376 101.119 51.7275 101.119 54.2251C101.119 56.7346 100.568 58.9304 99.4673 60.8125C98.3782 62.6828 96.8217 64.1328 94.7975 65.1626C92.7734 66.1925 90.3704 66.7074 87.5887 66.7074H78.3202V59.7827H85.9552C87.2809 59.7827 88.3877 59.5518 89.2755 59.0902C90.1751 58.6286 90.8558 57.9834 91.3174 57.1548C91.779 56.3144 92.0099 55.3378 92.0099 54.2251C92.0099 53.1006 91.779 52.13 91.3174 51.3132C90.8558 50.4846 90.1751 49.8454 89.2755 49.3956C88.3759 48.9458 87.2691 48.7209 85.9552 48.7209H81.6228V78H72.8337ZM105.451 78V50.7273H113.885V55.6989H114.169C114.666 53.8996 115.477 52.562 116.601 51.6861C117.726 50.7983 119.034 50.3544 120.525 50.3544C120.928 50.3544 121.342 50.384 121.768 50.4432C122.195 50.4905 122.591 50.5675 122.958 50.674V58.2202C122.544 58.0781 121.999 57.9657 121.325 57.8828C120.662 57.8 120.07 57.7585 119.549 57.7585C118.519 57.7585 117.59 57.9893 116.761 58.451C115.945 58.9008 115.299 59.5341 114.826 60.3509C114.364 61.1558 114.133 62.1027 114.133 63.1918V78H105.451ZM126.496 78V50.7273H135.178V78H126.496ZM130.846 47.549C129.627 47.549 128.579 47.1465 127.703 46.3416C126.827 45.5249 126.389 44.5424 126.389 43.3942C126.389 42.2578 126.827 41.2872 127.703 40.4822C128.579 39.6655 129.627 39.2571 130.846 39.2571C132.077 39.2571 133.125 39.6655 133.989 40.4822C134.865 41.2872 135.303 42.2578 135.303 43.3942C135.303 44.5424 134.865 45.5249 133.989 46.3416C133.125 47.1465 132.077 47.549 130.846 47.549ZM153.436 78.5149C150.559 78.5149 148.091 77.9231 146.032 76.7393C143.984 75.5556 142.409 73.9103 141.309 71.8033C140.208 69.6844 139.657 67.2341 139.657 64.4524C139.657 61.6589 140.208 59.2086 141.309 57.1016C142.421 54.9827 144.001 53.3314 146.049 52.1477C148.109 50.964 150.565 50.3722 153.418 50.3722C155.939 50.3722 158.135 50.8279 160.005 51.7393C161.887 52.6508 163.355 53.9411 164.409 55.6101C165.474 57.2673 166.036 59.2145 166.095 61.4517H157.981C157.815 60.0549 157.342 58.96 156.561 58.1669C155.791 57.3738 154.785 56.9773 153.542 56.9773C152.536 56.9773 151.654 57.2614 150.897 57.8295C150.139 58.3859 149.547 59.2145 149.121 60.3153C148.707 61.4044 148.5 62.7538 148.5 64.3636C148.5 65.9735 148.707 67.3348 149.121 68.4474C149.547 69.5483 150.139 70.3828 150.897 70.951C151.654 71.5073 152.536 71.7855 153.542 71.7855C154.347 71.7855 155.057 71.6139 155.673 71.2706C156.3 70.9273 156.815 70.4242 157.218 69.7614C157.62 69.0866 157.875 68.2699 157.981 67.3111H166.095C166.013 69.5601 165.45 71.5251 164.409 73.206C163.379 74.8868 161.929 76.1948 160.059 77.13C158.2 78.0533 155.992 78.5149 153.436 78.5149ZM170.539 78V50.7273H179.221V78H170.539ZM174.889 47.549C173.67 47.549 172.622 47.1465 171.746 46.3416C170.87 45.5249 170.432 44.5424 170.432 43.3942C170.432 42.2578 170.87 41.2872 171.746 40.4822C172.622 39.6655 173.67 39.2571 174.889 39.2571C176.12 39.2571 177.168 39.6655 178.032 40.4822C178.908 41.2872 179.346 42.2578 179.346 43.3942C179.346 44.5424 178.908 45.5249 178.032 46.3416C177.168 47.1465 176.12 47.549 174.889 47.549ZM193.43 62.446V78H184.748V50.7273H193.004V55.7344H193.306C193.91 54.0653 194.94 52.7573 196.396 51.8104C197.851 50.8516 199.586 50.3722 201.598 50.3722C203.516 50.3722 205.179 50.8042 206.587 51.6683C208.008 52.5206 209.109 53.7161 209.89 55.255C210.683 56.782 211.074 58.5694 211.062 60.6172V78H202.379V62.3217C202.391 60.8066 202.006 59.6229 201.225 58.7706C200.456 57.9183 199.384 57.4922 198.011 57.4922C197.1 57.4922 196.295 57.6934 195.597 58.0959C194.91 58.4865 194.377 59.0488 193.999 59.7827C193.632 60.5166 193.442 61.4044 193.43 62.446ZM229.15 88.7955C226.558 88.7955 224.339 88.4344 222.492 87.7124C220.645 86.9903 219.195 86.0019 218.142 84.7472C217.088 83.4924 216.455 82.072 216.242 80.4858L224.463 80.0241C224.617 80.5805 224.901 81.0658 225.315 81.4801C225.741 81.8944 226.292 82.214 226.966 82.4389C227.653 82.6638 228.458 82.7763 229.381 82.7763C230.837 82.7763 232.039 82.4212 232.986 81.7109C233.944 81.0125 234.424 79.7874 234.424 78.0355V73.2415H234.122C233.779 74.0819 233.258 74.8336 232.559 75.4964C231.861 76.1593 230.991 76.6802 229.949 77.0589C228.919 77.4377 227.736 77.6271 226.398 77.6271C224.41 77.6271 222.587 77.1655 220.929 76.2422C219.284 75.3071 217.964 73.8629 216.97 71.9098C215.987 69.9448 215.496 67.4176 215.496 64.3281C215.496 61.1439 216.005 58.522 217.023 56.4624C218.041 54.3909 219.373 52.858 221.018 51.8636C222.675 50.8693 224.457 50.3722 226.363 50.3722C227.795 50.3722 229.02 50.6207 230.038 51.1179C231.068 51.6032 231.914 52.2306 232.577 53C233.24 53.7694 233.743 54.5684 234.086 55.397H234.335V50.7273H242.982V78.1065C242.982 80.4148 242.402 82.362 241.242 83.9482C240.082 85.5343 238.46 86.7358 236.377 87.5526C234.294 88.3812 231.885 88.7955 229.15 88.7955ZM229.417 71.3061C230.47 71.3061 231.37 71.0279 232.116 70.4716C232.861 69.9152 233.435 69.1162 233.838 68.0746C234.24 67.0329 234.442 65.7841 234.442 64.3281C234.442 62.8485 234.24 61.576 233.838 60.5107C233.447 59.4335 232.873 58.6049 232.116 58.0249C231.37 57.4448 230.47 57.1548 229.417 57.1548C228.339 57.1548 227.428 57.4508 226.682 58.0426C225.937 58.6345 225.368 59.469 224.978 60.5462C224.599 61.6115 224.41 62.8722 224.41 64.3281C224.41 65.7841 224.605 67.0329 224.995 68.0746C225.386 69.1162 225.948 69.9152 226.682 70.4716C227.428 71.0279 228.339 71.3061 229.417 71.3061ZM259.26 88.2273V50.7273H267.853V55.397H268.12C268.475 54.5684 268.978 53.7694 269.629 53C270.292 52.2306 271.132 51.6032 272.15 51.1179C273.18 50.6207 274.411 50.3722 275.843 50.3722C277.737 50.3722 279.507 50.8693 281.152 51.8636C282.809 52.858 284.147 54.3909 285.165 56.4624C286.183 58.5339 286.692 61.1735 286.692 64.3814C286.692 67.4709 286.201 70.0573 285.218 72.1406C284.248 74.224 282.934 75.7865 281.277 76.8281C279.631 77.8698 277.802 78.3906 275.79 78.3906C274.417 78.3906 273.227 78.1657 272.221 77.7159C271.215 77.2661 270.369 76.6742 269.682 75.9403C269.007 75.2064 268.487 74.4193 268.12 73.5788H267.942V88.2273H259.26ZM267.764 64.3636C267.764 65.8314 267.96 67.1098 268.35 68.1989C268.753 69.2879 269.327 70.1342 270.073 70.7379C270.83 71.3298 271.736 71.6257 272.789 71.6257C273.855 71.6257 274.76 71.3298 275.506 70.7379C276.252 70.1342 276.814 69.2879 277.193 68.1989C277.583 67.1098 277.779 65.8314 277.779 64.3636C277.779 62.8958 277.583 61.6233 277.193 60.5462C276.814 59.469 276.252 58.6345 275.506 58.0426C274.772 57.4508 273.867 57.1548 272.789 57.1548C271.724 57.1548 270.818 57.4448 270.073 58.0249C269.327 58.6049 268.753 59.4335 268.35 60.5107C267.96 61.5878 267.764 62.8722 267.764 64.3636ZM299.924 41.6364V78H291.242V41.6364H299.924ZM313.139 78.4616C311.399 78.4616 309.854 78.1716 308.505 77.5916C307.167 76.9998 306.108 76.112 305.327 74.9283C304.557 73.7327 304.173 72.2353 304.173 70.4361C304.173 68.9209 304.439 67.6425 304.972 66.6009C305.504 65.5592 306.238 64.7128 307.173 64.0618C308.108 63.4107 309.186 62.9195 310.405 62.5881C311.624 62.2448 312.926 62.014 314.311 61.8956C315.862 61.7536 317.11 61.6056 318.057 61.4517C319.004 61.286 319.691 61.0552 320.117 60.7592C320.555 60.4515 320.774 60.0194 320.774 59.4631V59.3743C320.774 58.4628 320.46 57.7585 319.833 57.2614C319.206 56.7642 318.359 56.5156 317.294 56.5156C316.146 56.5156 315.222 56.7642 314.524 57.2614C313.826 57.7585 313.382 58.4451 313.192 59.321L305.185 59.0369C305.421 57.3797 306.031 55.9001 307.013 54.598C308.008 53.2841 309.369 52.2543 311.097 51.5085C312.837 50.7509 314.927 50.3722 317.365 50.3722C319.105 50.3722 320.709 50.5793 322.177 50.9936C323.645 51.3961 324.923 51.9879 326.012 52.7692C327.101 53.5386 327.941 54.4856 328.533 55.6101C329.137 56.7346 329.439 58.0189 329.439 59.4631V78H321.271V74.2003H321.058C320.573 75.1236 319.951 75.9048 319.194 76.544C318.448 77.1832 317.566 77.6626 316.548 77.9822C315.542 78.3018 314.406 78.4616 313.139 78.4616ZM315.82 72.7798C316.755 72.7798 317.596 72.5904 318.342 72.2116C319.099 71.8329 319.703 71.312 320.153 70.6491C320.602 69.9744 320.827 69.1932 320.827 68.3054V65.7131C320.579 65.8433 320.277 65.9616 319.922 66.0682C319.579 66.1747 319.2 66.2753 318.785 66.37C318.371 66.4647 317.945 66.5476 317.507 66.6186C317.069 66.6896 316.649 66.7547 316.246 66.8139C315.43 66.9441 314.731 67.1454 314.151 67.4176C313.583 67.6899 313.145 68.045 312.837 68.483C312.541 68.9091 312.393 69.4181 312.393 70.0099C312.393 70.9096 312.713 71.5961 313.352 72.0696C314.003 72.5431 314.826 72.7798 315.82 72.7798ZM343.43 62.446V78H334.748V50.7273H343.004V55.7344H343.306C343.91 54.0653 344.94 52.7573 346.396 51.8104C347.851 50.8516 349.586 50.3722 351.598 50.3722C353.516 50.3722 355.179 50.8042 356.587 51.6683C358.008 52.5206 359.109 53.7161 359.89 55.255C360.683 56.782 361.074 58.5694 361.062 60.6172V78H352.379V62.3217C352.391 60.8066 352.006 59.6229 351.225 58.7706C350.456 57.9183 349.384 57.4922 348.011 57.4922C347.1 57.4922 346.295 57.6934 345.597 58.0959C344.91 58.4865 344.377 59.0488 343.999 59.7827C343.632 60.5166 343.442 61.4044 343.43 62.446Z" fill="#131316"/>
<path d="M371.32 78.5149C370.042 78.5149 368.947 78.0651 368.035 77.1655C367.136 76.2659 366.692 75.1768 366.704 73.8984C366.692 72.6437 367.136 71.5724 368.035 70.6847C368.947 69.785 370.042 69.3352 371.32 69.3352C372.527 69.3352 373.593 69.785 374.516 70.6847C375.451 71.5724 375.925 72.6437 375.937 73.8984C375.925 74.7507 375.7 75.526 375.262 76.2244C374.836 76.9228 374.273 77.4792 373.575 77.8935C372.888 78.3078 372.137 78.5149 371.32 78.5149Z" fill="#4AE290"/>
</svg>
