<svg width="540" height="120" viewBox="0 0 540 120" fill="none" xmlns="http://www.w3.org/2000/svg">
<path d="M107.499 20H94.1661V30C94.1661 30.963 93.9765 31.9166 93.6079 32.8064C93.2394 33.6961 92.6992 34.5045 92.0183 35.1855C91.3373 35.8664 90.5289 36.4066 89.6392 36.7751C88.7494 37.1437 87.7958 37.3334 86.8328 37.3334C85.8698 37.3334 84.9162 37.1437 84.0265 36.7751C83.1367 36.4066 82.3283 35.8664 81.6474 35.1855C80.9664 34.5045 80.4262 33.6961 80.0577 32.8064C79.6892 31.9166 79.4995 30.963 79.4995 30V20H40.6661V30C40.6661 31.9449 39.8935 33.8102 38.5183 35.1855C37.143 36.5607 35.2777 37.3334 33.3328 37.3334C31.3879 37.3334 29.5226 36.5607 28.1474 35.1855C26.7721 33.8102 25.9995 31.9449 25.9995 30V20H12.6661C11.8729 19.991 11.0859 20.1411 10.3517 20.4416C9.61743 20.742 8.95091 21.1866 8.39152 21.7491C7.83212 22.3116 7.39121 22.9806 7.09485 23.7165C6.7985 24.4523 6.65272 25.2402 6.66614 26.0334V100.633C6.6529 101.413 6.79329 102.187 7.07929 102.912C7.3653 103.637 7.79132 104.298 8.33301 104.858C8.87471 105.419 9.52147 105.867 10.2364 106.177C10.9513 106.487 11.7203 106.654 12.4995 106.667H107.499C108.279 106.654 109.048 106.487 109.763 106.177C110.477 105.867 111.124 105.419 111.666 104.858C112.208 104.298 112.634 103.637 112.92 102.912C113.206 102.187 113.346 101.413 113.333 100.633V26.0334C113.346 25.2541 113.206 24.48 112.92 23.755C112.634 23.0301 112.208 22.3686 111.666 21.8083C111.124 21.2481 110.477 20.8 109.763 20.4897C109.048 20.1794 108.279 20.013 107.499 20ZM33.3328 86.6667H26.6661V80H33.3328V86.6667ZM33.3328 70H26.6661V63.3334H33.3328V70ZM33.3328 53.3334H26.6661V46.6667H33.3328V53.3334ZM53.3328 86.6667H46.6661V80H53.3328V86.6667ZM53.3328 70H46.6661V63.3334H53.3328V70ZM53.3328 53.3334H46.6661V46.6667H53.3328V53.3334ZM73.3328 86.6667H66.6661V80H73.3328V86.6667ZM73.3328 70H66.6661V63.3334H73.3328V70ZM73.3328 53.3334H66.6661V46.6667H73.3328V53.3334ZM93.3328 86.6667H86.6661V80H93.3328V86.6667ZM93.3328 70H86.6661V63.3334H93.3328V70ZM93.3328 53.3334H86.6661V46.6667H93.3328V53.3334Z" fill="#131316" fill-opacity="0.05"/>
<path d="M33.3333 33.3333C34.2174 33.3333 35.0652 32.9821 35.6904 32.357C36.3155 31.7319 36.6667 30.884 36.6667 30V9.99996C36.6667 9.1159 36.3155 8.26806 35.6904 7.64294C35.0652 7.01782 34.2174 6.66663 33.3333 6.66663C32.4493 6.66663 31.6014 7.01782 30.9763 7.64294C30.3512 8.26806 30 9.1159 30 9.99996V30C30 30.884 30.3512 31.7319 30.9763 32.357C31.6014 32.9821 32.4493 33.3333 33.3333 33.3333Z" fill="#131316" fill-opacity="0.05"/>
<path d="M86.6666 33.3333C87.5507 33.3333 88.3986 32.9821 89.0237 32.357C89.6488 31.7319 90 30.884 90 30V9.99996C90 9.1159 89.6488 8.26806 89.0237 7.64294C88.3986 7.01782 87.5507 6.66663 86.6666 6.66663C85.7826 6.66663 84.9347 7.01782 84.3096 7.64294C83.6845 8.26806 83.3333 9.1159 83.3333 9.99996V30C83.3333 30.884 83.6845 31.7319 84.3096 32.357C84.9347 32.9821 85.7826 33.3333 86.6666 33.3333Z" fill="#131316" fill-opacity="0.05"/>
<path d="M71.9678 48.7741V41.6364H102.703V48.7741H91.6766V78H83.0118V48.7741H71.9678ZM104.163 78V50.7273H112.597V55.6989H112.881C113.378 53.8996 114.189 52.562 115.314 51.6861C116.438 50.7983 117.746 50.3544 119.238 50.3544C119.64 50.3544 120.055 50.384 120.481 50.4432C120.907 50.4905 121.303 50.5675 121.67 50.674V58.2202C121.256 58.0781 120.712 57.9657 120.037 57.8828C119.374 57.8 118.782 57.7585 118.261 57.7585C117.231 57.7585 116.302 57.9893 115.474 58.451C114.657 58.9008 114.012 59.5341 113.538 60.3509C113.077 61.1558 112.846 62.1027 112.846 63.1918V78H104.163ZM131.871 78.4616C130.131 78.4616 128.586 78.1716 127.237 77.5916C125.899 76.9998 124.84 76.112 124.059 74.9283C123.289 73.7327 122.904 72.2353 122.904 70.4361C122.904 68.9209 123.171 67.6425 123.703 66.6009C124.236 65.5592 124.97 64.7128 125.905 64.0618C126.84 63.4107 127.917 62.9195 129.137 62.5881C130.356 62.2448 131.658 62.014 133.043 61.8956C134.594 61.7536 135.842 61.6056 136.789 61.4517C137.736 61.286 138.423 61.0552 138.849 60.7592C139.287 60.4515 139.506 60.0194 139.506 59.4631V59.3743C139.506 58.4628 139.192 57.7585 138.565 57.2614C137.938 56.7642 137.091 56.5156 136.026 56.5156C134.878 56.5156 133.954 56.7642 133.256 57.2614C132.558 57.7585 132.114 58.4451 131.924 59.321L123.916 59.0369C124.153 57.3797 124.763 55.9001 125.745 54.598C126.74 53.2841 128.101 52.2543 129.829 51.5085C131.569 50.7509 133.658 50.3722 136.097 50.3722C137.837 50.3722 139.441 50.5793 140.909 50.9936C142.376 51.3961 143.655 51.9879 144.744 52.7692C145.833 53.5386 146.673 54.4856 147.265 55.6101C147.869 56.7346 148.171 58.0189 148.171 59.4631V78H140.003V74.2003H139.79C139.305 75.1236 138.683 75.9048 137.926 76.544C137.18 77.1832 136.298 77.6626 135.28 77.9822C134.274 78.3018 133.138 78.4616 131.871 78.4616ZM134.552 72.7798C135.487 72.7798 136.328 72.5904 137.073 72.2116C137.831 71.8329 138.435 71.312 138.884 70.6491C139.334 69.9744 139.559 69.1932 139.559 68.3054V65.7131C139.311 65.8433 139.009 65.9616 138.654 66.0682C138.31 66.1747 137.932 66.2753 137.517 66.37C137.103 66.4647 136.677 66.5476 136.239 66.6186C135.801 66.6896 135.381 66.7547 134.978 66.8139C134.161 66.9441 133.463 67.1454 132.883 67.4176C132.315 67.6899 131.877 68.045 131.569 68.483C131.273 68.9091 131.125 69.4181 131.125 70.0099C131.125 70.9096 131.445 71.5961 132.084 72.0696C132.735 72.5431 133.558 72.7798 134.552 72.7798ZM153.48 78V50.7273H162.162V78H153.48ZM157.83 47.549C156.611 47.549 155.563 47.1465 154.687 46.3416C153.811 45.5249 153.373 44.5424 153.373 43.3942C153.373 42.2578 153.811 41.2872 154.687 40.4822C155.563 39.6655 156.611 39.2571 157.83 39.2571C159.061 39.2571 160.108 39.6655 160.973 40.4822C161.849 41.2872 162.286 42.2578 162.286 43.3942C162.286 44.5424 161.849 45.5249 160.973 46.3416C160.108 47.1465 159.061 47.549 157.83 47.549ZM176.371 62.446V78H167.689V50.7273H175.945V55.7344H176.247C176.851 54.0653 177.88 52.7573 179.336 51.8104C180.792 50.8516 182.526 50.3722 184.539 50.3722C186.456 50.3722 188.12 50.8042 189.528 51.6683C190.949 52.5206 192.049 53.7161 192.831 55.255C193.624 56.782 194.014 58.5694 194.003 60.6172V78H185.32V62.3217C185.332 60.8066 184.947 59.6229 184.166 58.7706C183.397 57.9183 182.325 57.4922 180.952 57.4922C180.041 57.4922 179.236 57.6934 178.537 58.0959C177.851 58.4865 177.318 59.0488 176.939 59.7827C176.572 60.5166 176.383 61.4044 176.371 62.446ZM199.378 78V50.7273H208.061V78H199.378ZM203.728 47.549C202.509 47.549 201.461 47.1465 200.585 46.3416C199.71 45.5249 199.272 44.5424 199.272 43.3942C199.272 42.2578 199.71 41.2872 200.585 40.4822C201.461 39.6655 202.509 39.2571 203.728 39.2571C204.959 39.2571 206.007 39.6655 206.871 40.4822C207.747 41.2872 208.185 42.2578 208.185 43.3942C208.185 44.5424 207.747 45.5249 206.871 46.3416C206.007 47.1465 204.959 47.549 203.728 47.549ZM222.27 62.446V78H213.587V50.7273H221.843V55.7344H222.145C222.749 54.0653 223.779 52.7573 225.235 51.8104C226.691 50.8516 228.425 50.3722 230.437 50.3722C232.355 50.3722 234.018 50.8042 235.427 51.6683C236.847 52.5206 237.948 53.7161 238.729 55.255C239.522 56.782 239.913 58.5694 239.901 60.6172V78H231.218V62.3217C231.23 60.8066 230.846 59.6229 230.064 58.7706C229.295 57.9183 228.224 57.4922 226.851 57.4922C225.939 57.4922 225.134 57.6934 224.436 58.0959C223.749 58.4865 223.217 59.0488 222.838 59.7827C222.471 60.5166 222.281 61.4044 222.27 62.446ZM257.99 88.7955C255.397 88.7955 253.178 88.4344 251.331 87.7124C249.485 86.9903 248.035 86.0019 246.981 84.7472C245.928 83.4924 245.294 82.072 245.081 80.4858L253.302 80.0241C253.456 80.5805 253.74 81.0658 254.154 81.4801C254.581 81.8944 255.131 82.214 255.806 82.4389C256.492 82.6638 257.297 82.7763 258.22 82.7763C259.676 82.7763 260.878 82.4212 261.825 81.7109C262.784 81.0125 263.263 79.7874 263.263 78.0355V73.2415H262.961C262.618 74.0819 262.097 74.8336 261.399 75.4964C260.7 76.1593 259.83 76.6802 258.789 77.0589C257.759 77.4377 256.575 77.6271 255.237 77.6271C253.249 77.6271 251.426 77.1655 249.769 76.2422C248.123 75.3071 246.804 73.8629 245.809 71.9098C244.827 69.9448 244.335 67.4176 244.335 64.3281C244.335 61.1439 244.844 58.522 245.862 56.4624C246.88 54.3909 248.212 52.858 249.858 51.8636C251.515 50.8693 253.296 50.3722 255.202 50.3722C256.634 50.3722 257.859 50.6207 258.877 51.1179C259.907 51.6032 260.754 52.2306 261.416 53C262.079 53.7694 262.582 54.5684 262.926 55.397H263.174V50.7273H271.821V78.1065C271.821 80.4148 271.241 82.362 270.081 83.9482C268.921 85.5343 267.3 86.7358 265.216 87.5526C263.133 88.3812 260.724 88.7955 257.99 88.7955ZM258.256 71.3061C259.309 71.3061 260.209 71.0279 260.955 70.4716C261.701 69.9152 262.275 69.1162 262.677 68.0746C263.08 67.0329 263.281 65.7841 263.281 64.3281C263.281 62.8485 263.08 61.576 262.677 60.5107C262.286 59.4335 261.712 58.6049 260.955 58.0249C260.209 57.4448 259.309 57.1548 258.256 57.1548C257.179 57.1548 256.267 57.4508 255.522 58.0426C254.776 58.6345 254.208 59.469 253.817 60.5462C253.438 61.6115 253.249 62.8722 253.249 64.3281C253.249 65.7841 253.444 67.0329 253.835 68.0746C254.225 69.1162 254.788 69.9152 255.522 70.4716C256.267 71.0279 257.179 71.3061 258.256 71.3061ZM288.099 88.2273V50.7273H296.693V55.397H296.959C297.314 54.5684 297.817 53.7694 298.468 53C299.131 52.2306 299.971 51.6032 300.989 51.1179C302.019 50.6207 303.25 50.3722 304.683 50.3722C306.577 50.3722 308.346 50.8693 309.992 51.8636C311.649 52.858 312.986 54.3909 314.004 56.4624C315.022 58.5339 315.531 61.1735 315.531 64.3814C315.531 67.4709 315.04 70.0573 314.058 72.1406C313.087 74.224 311.773 75.7865 310.116 76.8281C308.47 77.8698 306.642 78.3906 304.629 78.3906C303.256 78.3906 302.067 78.1657 301.06 77.7159C300.054 77.2661 299.208 76.6742 298.521 75.9403C297.847 75.2064 297.326 74.4193 296.959 73.5788H296.781V88.2273H288.099ZM296.604 64.3636C296.604 65.8314 296.799 67.1098 297.19 68.1989C297.592 69.2879 298.166 70.1342 298.912 70.7379C299.67 71.3298 300.575 71.6257 301.629 71.6257C302.694 71.6257 303.6 71.3298 304.345 70.7379C305.091 70.1342 305.653 69.2879 306.032 68.1989C306.423 67.1098 306.618 65.8314 306.618 64.3636C306.618 62.8958 306.423 61.6233 306.032 60.5462C305.653 59.469 305.091 58.6345 304.345 58.0426C303.611 57.4508 302.706 57.1548 301.629 57.1548C300.563 57.1548 299.658 57.4448 298.912 58.0249C298.166 58.6049 297.592 59.4335 297.19 60.5107C296.799 61.5878 296.604 62.8722 296.604 64.3636ZM320.081 78V50.7273H328.515V55.6989H328.799C329.296 53.8996 330.107 52.562 331.232 51.6861C332.356 50.7983 333.664 50.3544 335.156 50.3544C335.558 50.3544 335.973 50.384 336.399 50.4432C336.825 50.4905 337.221 50.5675 337.588 50.674V58.2202C337.174 58.0781 336.63 57.9657 335.955 57.8828C335.292 57.8 334.7 57.7585 334.179 57.7585C333.149 57.7585 332.22 57.9893 331.392 58.451C330.575 58.9008 329.93 59.5341 329.456 60.3509C328.995 61.1558 328.764 62.1027 328.764 63.1918V78H320.081ZM352.441 78.5149C349.576 78.5149 347.114 77.929 345.055 76.7571C343.007 75.5734 341.427 73.928 340.314 71.821C339.213 69.7022 338.663 67.246 338.663 64.4524C338.663 61.647 339.213 59.1908 340.314 57.0838C341.427 54.965 343.007 53.3196 345.055 52.1477C347.114 50.964 349.576 50.3722 352.441 50.3722C355.306 50.3722 357.762 50.964 359.81 52.1477C361.869 53.3196 363.449 54.965 364.55 57.0838C365.663 59.1908 366.219 61.647 366.219 64.4524C366.219 67.246 365.663 69.7022 364.55 71.821C363.449 73.928 361.869 75.5734 359.81 76.7571C357.762 77.929 355.306 78.5149 352.441 78.5149ZM352.494 71.9631C353.536 71.9631 354.418 71.6435 355.14 71.0043C355.862 70.3651 356.412 69.4773 356.791 68.3409C357.182 67.2045 357.377 65.8906 357.377 64.3991C357.377 62.884 357.182 61.5582 356.791 60.4219C356.412 59.2855 355.862 58.3977 355.14 57.7585C354.418 57.1193 353.536 56.7997 352.494 56.7997C351.417 56.7997 350.506 57.1193 349.76 57.7585C349.026 58.3977 348.464 59.2855 348.073 60.4219C347.694 61.5582 347.505 62.884 347.505 64.3991C347.505 65.8906 347.694 67.2045 348.073 68.3409C348.464 69.4773 349.026 70.3651 349.76 71.0043C350.506 71.6435 351.417 71.9631 352.494 71.9631ZM383.38 88.7955C380.788 88.7955 378.568 88.4344 376.722 87.7124C374.875 86.9903 373.425 86.0019 372.372 84.7472C371.318 83.4924 370.685 82.072 370.472 80.4858L378.693 80.0241C378.847 80.5805 379.131 81.0658 379.545 81.4801C379.971 81.8944 380.522 82.214 381.196 82.4389C381.883 82.6638 382.688 82.7763 383.611 82.7763C385.067 82.7763 386.268 82.4212 387.215 81.7109C388.174 81.0125 388.654 79.7874 388.654 78.0355V73.2415H388.352C388.009 74.0819 387.488 74.8336 386.789 75.4964C386.091 76.1593 385.221 76.6802 384.179 77.0589C383.149 77.4377 381.966 77.6271 380.628 77.6271C378.639 77.6271 376.817 77.1655 375.159 76.2422C373.514 75.3071 372.194 73.8629 371.2 71.9098C370.217 69.9448 369.726 67.4176 369.726 64.3281C369.726 61.1439 370.235 58.522 371.253 56.4624C372.271 54.3909 373.603 52.858 375.248 51.8636C376.905 50.8693 378.687 50.3722 380.593 50.3722C382.025 50.3722 383.25 50.6207 384.268 51.1179C385.298 51.6032 386.144 52.2306 386.807 53C387.47 53.7694 387.973 54.5684 388.316 55.397H388.565V50.7273H397.212V78.1065C397.212 80.4148 396.632 82.362 395.472 83.9482C394.312 85.5343 392.69 86.7358 390.607 87.5526C388.523 88.3812 386.115 88.7955 383.38 88.7955ZM383.647 71.3061C384.7 71.3061 385.6 71.0279 386.345 70.4716C387.091 69.9152 387.665 69.1162 388.068 68.0746C388.47 67.0329 388.671 65.7841 388.671 64.3281C388.671 62.8485 388.47 61.576 388.068 60.5107C387.677 59.4335 387.103 58.6049 386.345 58.0249C385.6 57.4448 384.7 57.1548 383.647 57.1548C382.569 57.1548 381.658 57.4508 380.912 58.0426C380.166 58.6345 379.598 59.469 379.208 60.5462C378.829 61.6115 378.639 62.8722 378.639 64.3281C378.639 65.7841 378.835 67.0329 379.225 68.0746C379.616 69.1162 380.178 69.9152 380.912 70.4716C381.658 71.0279 382.569 71.3061 383.647 71.3061ZM402.747 78V50.7273H411.181V55.6989H411.465C411.962 53.8996 412.773 52.562 413.898 51.6861C415.022 50.7983 416.33 50.3544 417.822 50.3544C418.224 50.3544 418.639 50.384 419.065 50.4432C419.491 50.4905 419.887 50.5675 420.254 50.674V58.2202C419.84 58.0781 419.296 57.9657 418.621 57.8828C417.958 57.8 417.366 57.7585 416.845 57.7585C415.815 57.7585 414.886 57.9893 414.058 58.451C413.241 58.9008 412.596 59.5341 412.122 60.3509C411.661 61.1558 411.43 62.1027 411.43 63.1918V78H402.747ZM430.455 78.4616C428.715 78.4616 427.17 78.1716 425.821 77.5916C424.483 76.9998 423.424 76.112 422.642 74.9283C421.873 73.7327 421.488 72.2353 421.488 70.4361C421.488 68.9209 421.755 67.6425 422.287 66.6009C422.82 65.5592 423.554 64.7128 424.489 64.0618C425.424 63.4107 426.501 62.9195 427.721 62.5881C428.94 62.2448 430.242 62.014 431.627 61.8956C433.178 61.7536 434.426 61.6056 435.373 61.4517C436.32 61.286 437.007 61.0552 437.433 60.7592C437.871 60.4515 438.09 60.0194 438.09 59.4631V59.3743C438.09 58.4628 437.776 57.7585 437.149 57.2614C436.522 56.7642 435.675 56.5156 434.61 56.5156C433.462 56.5156 432.538 56.7642 431.84 57.2614C431.142 57.7585 430.698 58.4451 430.508 59.321L422.5 59.0369C422.737 57.3797 423.347 55.9001 424.329 54.598C425.324 53.2841 426.685 52.2543 428.413 51.5085C430.153 50.7509 432.242 50.3722 434.681 50.3722C436.421 50.3722 438.025 50.5793 439.493 50.9936C440.96 51.3961 442.239 51.9879 443.328 52.7692C444.417 53.5386 445.257 54.4856 445.849 55.6101C446.453 56.7346 446.755 58.0189 446.755 59.4631V78H438.587V74.2003H438.374C437.889 75.1236 437.267 75.9048 436.51 76.544C435.764 77.1832 434.882 77.6626 433.864 77.9822C432.858 78.3018 431.722 78.4616 430.455 78.4616ZM433.136 72.7798C434.071 72.7798 434.912 72.5904 435.657 72.2116C436.415 71.8329 437.019 71.312 437.468 70.6491C437.918 69.9744 438.143 69.1932 438.143 68.3054V65.7131C437.895 65.8433 437.593 65.9616 437.238 66.0682C436.894 66.1747 436.516 66.2753 436.101 66.37C435.687 66.4647 435.261 66.5476 434.823 66.6186C434.385 66.6896 433.965 66.7547 433.562 66.8139C432.745 66.9441 432.047 67.1454 431.467 67.4176C430.899 67.6899 430.461 68.045 430.153 68.483C429.857 68.9091 429.709 69.4181 429.709 70.0099C429.709 70.9096 430.029 71.5961 430.668 72.0696C431.319 72.5431 432.142 72.7798 433.136 72.7798ZM452.064 78V50.7273H460.32V55.7344H460.622C461.19 54.0772 462.149 52.7692 463.498 51.8104C464.848 50.8516 466.458 50.3722 468.328 50.3722C470.222 50.3722 471.843 50.8575 473.193 51.8281C474.542 52.7988 475.401 54.1009 475.767 55.7344H476.052C476.561 54.1127 477.555 52.8165 479.035 51.8459C480.514 50.8634 482.26 50.3722 484.272 50.3722C486.853 50.3722 488.948 51.2008 490.558 52.858C492.168 54.5033 492.973 56.7642 492.973 59.6406V78H484.29V61.6293C484.29 60.268 483.941 59.2322 483.243 58.522C482.544 57.8 481.639 57.4389 480.526 57.4389C479.33 57.4389 478.389 57.8295 477.703 58.6108C477.028 59.3802 476.691 60.416 476.691 61.718V78H468.346V61.5405C468.346 60.2739 468.002 59.2737 467.316 58.5398C466.629 57.8059 465.724 57.4389 464.599 57.4389C463.842 57.4389 463.173 57.6224 462.593 57.9893C462.013 58.3445 461.557 58.8535 461.226 59.5163C460.906 60.1792 460.746 60.9605 460.746 61.8601V78H452.064ZM522.163 59.0547L514.191 59.2678C514.108 58.6996 513.883 58.1965 513.516 57.7585C513.149 57.3087 512.67 56.9595 512.078 56.7109C511.498 56.4505 510.823 56.3203 510.054 56.3203C509.048 56.3203 508.189 56.5215 507.479 56.924C506.781 57.3265 506.437 57.871 506.449 58.5575C506.437 59.0902 506.651 59.5518 507.089 59.9425C507.538 60.3331 508.337 60.6468 509.486 60.8835L514.741 61.8778C517.464 62.3987 519.488 63.2628 520.814 64.4702C522.151 65.6776 522.826 67.2756 522.838 69.2642C522.826 71.1345 522.27 72.7621 521.169 74.147C520.08 75.532 518.588 76.6091 516.694 77.3786C514.8 78.1361 512.634 78.5149 510.196 78.5149C506.301 78.5149 503.23 77.7159 500.981 76.1179C498.743 74.508 497.465 72.3537 497.145 69.6548L505.721 69.4418C505.911 70.4361 506.402 71.1937 507.195 71.7145C507.988 72.2353 509 72.4957 510.231 72.4957C511.344 72.4957 512.249 72.2886 512.948 71.8743C513.646 71.46 514.001 70.9096 514.013 70.223C514.001 69.6075 513.729 69.1162 513.196 68.7493C512.664 68.3705 511.829 68.0746 510.693 67.8615L505.934 66.956C503.2 66.4588 501.164 65.5414 499.826 64.2038C498.489 62.8544 497.826 61.138 497.838 59.0547C497.826 57.2318 498.311 55.6752 499.294 54.3849C500.276 53.0829 501.673 52.0885 503.484 51.402C505.295 50.7154 507.432 50.3722 509.894 50.3722C513.587 50.3722 516.499 51.1475 518.63 52.6982C520.76 54.237 521.938 56.3558 522.163 59.0547Z" fill="#131316"/>
<path d="M531.995 78.5149C530.717 78.5149 529.622 78.0651 528.71 77.1655C527.811 76.2659 527.367 75.1768 527.379 73.8984C527.367 72.6437 527.811 71.5724 528.71 70.6847C529.622 69.785 530.717 69.3352 531.995 69.3352C533.203 69.3352 534.268 69.785 535.191 70.6847C536.126 71.5724 536.6 72.6437 536.612 73.8984C536.6 74.7507 536.375 75.526 535.937 76.2244C535.511 76.9228 534.949 77.4792 534.25 77.8935C533.564 78.3078 532.812 78.5149 531.995 78.5149Z" fill="#4AE290"/>
</svg>
